<?xml version="1.0" standalone="no"?>
<!DOCTYPE svg PUBLIC "-//W3C//DTD SVG 20010904//EN"
 "http://www.w3.org/TR/2001/REC-SVG-20010904/DTD/svg10.dtd">
<svg version="1.0" xmlns="http://www.w3.org/2000/svg"
 width="617.000000pt" height="188.000000pt" viewBox="0 0 617.000000 188.000000"
 preserveAspectRatio="xMidYMid meet">

<g transform="translate(0.000000,188.000000) scale(0.100000,-0.100000)"
fill="#000000" stroke="none">
<path d="M772 1185 c-56 -17 -103 -50 -131 -91 l-23 -33 23 -58 c20 -47 25
-53 28 -32 2 13 20 38 40 56 l37 32 -28 -56 c-15 -31 -28 -68 -28 -84 l0 -28
57 35 c31 19 60 34 64 34 12 0 39 134 39 189 0 58 -4 59 -78 36z m10 -77 c-7
-7 -12 -8 -12 -2 0 14 12 26 19 19 2 -3 -1 -11 -7 -17z m-92 -22 c0 -3 -4 -8
-10 -11 -5 -3 -10 -1 -10 4 0 6 5 11 10 11 6 0 10 -2 10 -4z m-23 -48 c-3 -8
-6 -5 -6 6 -1 11 2 17 5 13 3 -3 4 -12 1 -19z m143 6 c0 -8 -32 -33 -42 -34
-10 0 24 38 35 39 4 1 7 -2 7 -5z"/>
<path d="M432 1147 c-31 -38 -55 -108 -60 -169 -4 -59 -1 -75 22 -122 32 -65
69 -92 149 -104 l57 -9 -35 39 c-19 21 -35 43 -35 48 0 6 -8 10 -17 11 -10 0
-13 3 -6 5 16 7 -3 52 -31 77 -17 14 -17 16 -3 11 13 -5 17 -1 17 17 0 19 4
16 18 -16 17 -37 19 -38 30 -20 6 11 12 15 12 10 0 -6 -5 -16 -11 -22 -14 -14
18 -66 36 -59 8 3 11 -2 8 -12 -5 -21 42 -69 52 -53 3 6 7 45 7 86 0 120 -53
215 -150 268 -39 21 -52 24 -60 14z m67 -109 l-2 -43 -6 35 c-7 33 -5 50 5 50
2 0 3 -19 3 -42z m70 -55 c0 -5 -4 -17 -9 -28 -8 -18 -9 -17 -9 8 -1 15 4 27
9 27 6 0 10 -3 9 -7z m41 -73 c0 -5 -4 -10 -10 -10 -5 0 -10 5 -10 10 0 6 5
10 10 10 6 0 10 -4 10 -10z m-160 -34 c14 -18 14 -18 -7 -6 -12 8 -19 18 -16
23 3 4 6 7 7 5 1 -2 8 -12 16 -22z"/>
<path d="M1400 980 c0 -169 1 -180 19 -180 16 0 19 10 23 75 5 82 24 115 64
115 42 0 54 -25 54 -111 0 -72 2 -79 20 -79 19 0 20 7 20 90 0 83 -2 93 -25
115 -27 28 -71 33 -101 10 -10 -8 -22 -15 -26 -15 -5 0 -8 36 -8 80 0 73 -2
80 -20 80 -19 0 -20 -7 -20 -180z"/>
<path d="M3540 980 c0 -173 1 -180 20 -180 19 0 20 7 20 180 0 173 -1 180 -20
180 -19 0 -20 -7 -20 -180z"/>
<path d="M4149 1111 c-33 -33 -39 -82 -14 -118 8 -12 41 -31 72 -43 60 -22 73
-33 73 -62 0 -43 -72 -64 -116 -34 -17 12 -22 12 -39 0 -20 -15 -20 -15 5 -34
18 -14 41 -20 82 -20 72 0 107 26 114 85 7 54 -10 74 -88 105 -60 24 -63 27
-63 60 0 29 5 36 28 44 19 7 37 7 58 -1 33 -13 59 -8 59 11 0 19 -46 36 -96
36 -37 0 -51 -6 -75 -29z"/>
<path d="M1110 1110 c0 -18 7 -20 55 -20 l55 0 0 -145 c0 -138 1 -145 20 -145
19 0 20 7 20 145 l0 145 55 0 c48 0 55 2 55 20 0 19 -7 20 -130 20 -123 0
-130 -1 -130 -20z"/>
<path d="M2156 1098 c-7 -18 -39 -91 -70 -161 -31 -71 -56 -130 -56 -133 0 -2
10 -4 23 -4 18 0 28 10 43 43 l19 42 77 3 76 3 17 -46 c14 -36 23 -45 41 -45
13 0 24 3 24 8 0 4 -30 78 -67 165 -59 136 -71 157 -90 157 -16 0 -27 -10 -37
-32z m94 -169 c0 -5 -27 -9 -61 -9 -69 0 -68 -5 -22 98 l25 57 29 -69 c16 -37
29 -72 29 -77z"/>
<path d="M3657 1123 c-12 -11 -7 -41 7 -46 21 -8 50 17 43 37 -6 16 -38 22
-50 9z"/>
<path d="M4897 1123 c-12 -11 -7 -41 7 -46 21 -8 50 17 43 37 -6 16 -38 22
-50 9z"/>
<path d="M2668 1058 c-2 -25 -8 -34 -25 -36 -32 -5 -30 -32 2 -32 25 0 25 -1
25 -85 0 -93 8 -105 69 -105 24 0 31 4 31 19 0 14 -8 21 -27 23 -27 3 -28 5
-31 76 l-3 72 31 0 c20 0 30 5 30 15 0 10 -10 15 -30 15 -28 0 -30 3 -30 35 0
28 -4 35 -19 35 -15 0 -21 -8 -23 -32z"/>
<path d="M3120 1055 c0 -31 -3 -35 -25 -35 -16 0 -25 -6 -25 -15 0 -9 9 -15
25 -15 25 0 25 -1 25 -78 0 -90 14 -112 68 -112 25 0 32 4 32 20 0 14 -7 20
-24 20 -30 0 -36 16 -36 91 0 59 0 59 30 59 39 0 41 27 3 32 -23 2 -29 8 -31
36 -2 24 -8 32 -23 32 -15 0 -19 -7 -19 -35z"/>
<path d="M5288 1058 c-2 -25 -8 -34 -25 -36 -13 -2 -23 -10 -23 -17 0 -7 10
-15 23 -17 20 -3 22 -9 25 -83 2 -43 8 -85 14 -92 6 -7 28 -13 49 -13 32 0 39
3 39 20 0 15 -7 20 -29 20 -27 0 -30 4 -36 43 -4 24 -5 56 -3 73 3 25 8 29 36
32 19 2 32 9 32 17 0 8 -13 15 -32 17 -29 3 -33 7 -36 36 -2 19 -9 32 -17 32
-8 0 -15 -13 -17 -32z"/>
<path d="M1709 1016 c-15 -9 -34 -32 -44 -52 -36 -76 15 -164 95 -164 43 0
100 23 100 41 0 18 -28 21 -54 4 -27 -18 -59 -14 -88 13 -38 32 -23 42 67 42
l85 0 0 34 c0 52 -35 87 -90 92 -28 3 -55 -1 -71 -10z m109 -43 c25 -34 15
-43 -53 -43 -74 0 -84 14 -38 50 30 24 69 20 91 -7z"/>
<path d="M2873 1010 c-40 -24 -53 -48 -53 -100 0 -34 6 -48 34 -76 28 -28 42
-34 75 -34 49 0 86 22 107 61 54 105 -61 211 -163 149z m108 -39 c29 -23 31
-81 4 -111 -42 -46 -125 -12 -125 52 0 65 71 100 121 59z"/>
<path d="M3334 1020 c-36 -14 -64 -59 -64 -102 0 -77 41 -118 119 -118 46 0
93 32 75 50 -9 9 -19 8 -43 -4 -37 -20 -75 -12 -96 17 -8 12 -15 25 -15 29 0
5 41 8 91 8 l92 0 -6 38 c-12 70 -85 110 -153 82z m84 -36 c12 -8 22 -24 22
-35 0 -17 -7 -19 -65 -19 -72 0 -78 8 -40 45 28 29 51 31 83 9z"/>
<path d="M3824 1020 c-80 -32 -86 -173 -9 -208 35 -16 97 -15 120 2 17 12 17
16 6 30 -10 12 -17 14 -25 6 -11 -11 -66 -13 -82 -2 -16 10 -34 48 -34 70 0
11 9 31 21 46 22 28 56 34 91 15 16 -8 24 -8 35 4 14 14 12 17 -15 31 -34 17
-75 20 -108 6z"/>
<path d="M4433 1010 c-40 -24 -53 -48 -53 -100 0 -34 6 -48 34 -76 29 -29 41
-34 81 -34 40 0 52 5 81 34 97 97 -26 248 -143 176z m112 -45 c30 -30 32 -64
4 -99 -14 -18 -30 -26 -52 -26 -38 0 -50 7 -66 37 -16 32 -14 57 10 87 27 34
71 35 104 1z"/>
<path d="M4724 1020 c-82 -33 -87 -168 -7 -209 30 -15 95 -14 118 3 17 12 17
16 6 30 -10 12 -17 14 -25 6 -5 -5 -25 -10 -43 -10 -66 0 -95 69 -52 125 22
28 21 27 104 13 30 -5 30 26 0 40 -30 14 -71 15 -101 2z"/>
<path d="M5050 1013 c-50 -35 -66 -77 -49 -136 13 -48 51 -77 101 -77 41 0 98
24 98 41 0 18 -28 21 -54 4 -27 -18 -59 -14 -88 13 -38 33 -23 42 72 42 l90 0
-6 33 c-4 17 -13 42 -21 55 -26 42 -99 55 -143 25z m108 -40 c25 -34 15 -43
-53 -43 -74 0 -84 14 -38 50 30 24 69 20 91 -7z"/>
<path d="M2390 936 c0 -104 19 -136 80 -136 21 0 43 6 50 15 7 8 16 15 21 15
5 0 9 -7 9 -15 0 -8 9 -15 20 -15 19 0 20 7 20 110 0 103 -1 110 -20 110 -18
0 -20 -7 -20 -55 0 -31 -7 -71 -14 -90 -13 -31 -19 -35 -50 -35 -46 0 -56 20
-56 109 0 64 -2 71 -20 71 -18 0 -20 -7 -20 -84z"/>
<path d="M3660 910 c0 -103 1 -110 20 -110 19 0 20 7 20 110 0 103 -1 110 -20
110 -19 0 -20 -7 -20 -110z"/>
<path d="M4900 910 c0 -103 1 -110 20 -110 19 0 20 7 20 110 0 103 -1 110 -20
110 -19 0 -20 -7 -20 -110z"/>
<path d="M5420 1016 c0 -2 20 -52 45 -112 l45 -107 -18 -31 c-12 -20 -27 -32
-45 -34 -19 -2 -27 -9 -27 -23 0 -17 6 -20 37 -17 48 4 62 24 127 191 53 134
53 137 31 137 -19 0 -27 -12 -51 -80 -16 -44 -31 -80 -34 -80 -3 0 -18 36 -35
80 -25 68 -32 80 -52 80 -13 0 -23 -2 -23 -4z"/>
<path d="M750 903 c-14 -10 -33 -27 -42 -38 -20 -23 -43 -84 -34 -92 7 -8 95
44 136 81 l34 31 -34 -40 c-19 -22 -53 -56 -75 -74 l-40 -34 43 7 c24 3 58 16
77 29 40 26 85 92 85 124 0 22 -4 23 -63 23 -43 0 -70 -5 -87 -17z m125 -13
c-3 -5 -11 -10 -16 -10 -6 0 -7 5 -4 10 3 6 11 10 16 10 6 0 7 -4 4 -10z
m-113 -32 c-7 -7 -12 -8 -12 -2 0 14 12 26 19 19 2 -3 -1 -11 -7 -17z m83 -38
c-3 -5 -11 -10 -16 -10 -6 0 -7 5 -4 10 3 6 11 10 16 10 6 0 7 -4 4 -10z"/>
</g>
</svg>
